<?xml version="1.0" encoding="UTF-8"?>
<!DOCTYPE svg PUBLIC "-//W3C//DTD SVG 1.1//EN" "http://www.w3.org/Graphics/SVG/1.1/DTD/svg11.dtd">
<svg xmlns="http://www.w3.org/2000/svg" version="1.1" width="128px" height="128px" style="shape-rendering:geometricPrecision; text-rendering:geometricPrecision; image-rendering:optimizeQuality; fill-rule:evenodd; clip-rule:evenodd" xmlns:xlink="http://www.w3.org/1999/xlink">
<g><path style="opacity:1" fill="#8ee163" d="M 61.5,-0.5 C 62.8333,-0.5 64.1667,-0.5 65.5,-0.5C 67.1667,0.833333 68.8333,2.16667 70.5,3.5C 68.5286,4.82312 66.5286,6.15645 64.5,7.5C 65.9448,9.06269 67.6115,10.396 69.5,11.5C 67.8816,13.316 65.8816,14.6493 63.5,15.5C 59.0879,11.6327 54.7546,11.6327 50.5,15.5C 52.1667,16.8333 53.8333,18.1667 55.5,19.5C 53.9853,21.0822 52.3186,22.4155 50.5,23.5C 47.9959,24.5839 45.6626,25.9172 43.5,27.5C 40.7332,26.9493 38.3999,25.6159 36.5,23.5C 38.3885,22.396 40.0552,21.0627 41.5,19.5C 39.7541,17.7484 37.7541,16.4151 35.5,15.5C 44.1667,10.1667 52.8333,4.83333 61.5,-0.5 Z"/></g>
<g><path style="opacity:1" fill="#9ce971" d="M 70.5,3.5 C 80.1669,8.33094 89.5002,13.6643 98.5,19.5C 96.0313,20.5686 93.6979,21.9019 91.5,23.5C 89.0207,21.9239 86.354,20.9239 83.5,20.5C 82.0125,18.3946 80.0125,16.728 77.5,15.5C 75.0324,16.8029 72.699,18.3029 70.5,20C 78.2115,22.8883 77.8782,25.3883 69.5,27.5C 67.5654,26.19 65.5654,24.8567 63.5,23.5C 60.8053,25.1776 58.1386,26.8442 55.5,28.5C 54.1879,26.5212 52.5212,24.8545 50.5,23.5C 52.3186,22.4155 53.9853,21.0822 55.5,19.5C 53.8333,18.1667 52.1667,16.8333 50.5,15.5C 54.7546,11.6327 59.0879,11.6327 63.5,15.5C 65.8816,14.6493 67.8816,13.316 69.5,11.5C 67.6115,10.396 65.9448,9.06269 64.5,7.5C 66.5286,6.15645 68.5286,4.82312 70.5,3.5 Z"/></g>
<g><path style="opacity:0.969" fill="#9eeb72" d="M 35.5,15.5 C 37.7541,16.4151 39.7541,17.7484 41.5,19.5C 40.0552,21.0627 38.3885,22.396 36.5,23.5C 38.3999,25.6159 40.7332,26.9493 43.5,27.5C 45.1233,28.7794 46.79,30.1128 48.5,31.5C 46.3512,33.4093 44.0179,35.076 41.5,36.5C 41.5858,35.5041 41.2524,34.6708 40.5,34C 34.1395,30.4878 27.8062,26.9878 21.5,23.5C 25.9042,20.4415 30.5709,17.7748 35.5,15.5 Z"/></g>
<g><path style="opacity:0.968" fill="#95e66a" d="M 98.5,19.5 C 103.446,21.8026 108.113,24.4693 112.5,27.5C 109.948,28.6935 107.448,30.0268 105,31.5C 102.667,30.1667 100.333,28.8333 98,27.5C 95.7497,28.7079 93.583,30.0413 91.5,31.5C 95.694,34.4285 100.027,37.0952 104.5,39.5C 102.537,40.8202 100.537,42.1535 98.5,43.5C 96.0038,44.5804 93.6705,45.9138 91.5,47.5C 89.0987,46.4608 86.7654,45.1274 84.5,43.5C 86.5,42.1667 88.5,40.8333 90.5,39.5C 88.417,38.0413 86.2503,36.7079 84,35.5C 76.9577,37.887 76.7911,40.5537 83.5,43.5C 79.3432,47.4199 75.3432,47.4199 71.5,43.5C 73.1233,42.2206 74.79,40.8872 76.5,39.5C 74.5808,38.3875 72.9142,37.0542 71.5,35.5C 75.4346,32.8567 79.4346,30.19 83.5,27.5C 81.6641,26.081 79.6641,24.9143 77.5,24C 79.3911,22.5576 81.3911,21.3909 83.5,20.5C 86.354,20.9239 89.0207,21.9239 91.5,23.5C 93.6979,21.9019 96.0313,20.5686 98.5,19.5 Z"/></g>
<g><path style="opacity:1" fill="#abef81" d="M 83.5,20.5 C 81.3911,21.3909 79.3911,22.5576 77.5,24C 79.6641,24.9143 81.6641,26.081 83.5,27.5C 79.4346,30.19 75.4346,32.8567 71.5,35.5C 68.6971,34.9335 66.3637,33.6002 64.5,31.5C 66.4192,30.3875 68.0858,29.0542 69.5,27.5C 77.8782,25.3883 78.2115,22.8883 70.5,20C 72.699,18.3029 75.0324,16.8029 77.5,15.5C 80.0125,16.728 82.0125,18.3946 83.5,20.5 Z"/></g>
<g><path style="opacity:1" fill="#92e367" d="M 69.5,27.5 C 68.0858,29.0542 66.4192,30.3875 64.5,31.5C 66.3637,33.6002 68.6971,34.9335 71.5,35.5C 72.9142,37.0542 74.5808,38.3875 76.5,39.5C 74.79,40.8872 73.1233,42.2206 71.5,43.5C 68.2809,44.0693 65.9475,45.736 64.5,48.5C 63.8333,48.5 63.1667,48.5 62.5,48.5C 62.0629,46.9256 61.0629,45.7589 59.5,45C 56.1019,43.6429 53.1019,41.8096 50.5,39.5C 52.3186,38.4155 53.9853,37.0822 55.5,35.5C 53.8333,34.1667 52.1667,32.8333 50.5,31.5C 52.0287,30.2371 53.6954,29.2371 55.5,28.5C 58.1386,26.8442 60.8053,25.1776 63.5,23.5C 65.5654,24.8567 67.5654,26.19 69.5,27.5 Z"/></g>
<g><path style="opacity:1" fill="#8fe065" d="M 21.5,23.5 C 27.8062,26.9878 34.1395,30.4878 40.5,34C 41.2524,34.6708 41.5858,35.5041 41.5,36.5C 35.2385,38.2234 35.0718,40.2234 41,42.5C 41.0334,44.8771 39.7001,46.2105 37,46.5C 35.1997,45.6805 33.3664,45.0138 31.5,44.5C 28.5,43.1667 25.5,41.8333 22.5,40.5C 20.8132,38.8338 18.8132,37.5005 16.5,36.5C 15.8333,38.8333 15.1667,41.1667 14.5,43.5C 12.3021,41.9019 9.96874,40.5686 7.5,39.5C 7.18259,36.4281 7.51592,33.4281 8.5,30.5C 12.701,27.8998 17.0344,25.5665 21.5,23.5 Z"/></g>
<g><path style="opacity:1" fill="#acef82" d="M 50.5,23.5 C 52.5212,24.8545 54.1879,26.5212 55.5,28.5C 53.6954,29.2371 52.0287,30.2371 50.5,31.5C 52.1667,32.8333 53.8333,34.1667 55.5,35.5C 53.9853,37.0822 52.3186,38.4155 50.5,39.5C 48.0587,40.5566 45.7254,41.89 43.5,43.5C 45.3885,44.604 47.0552,45.9373 48.5,47.5C 47.3947,48.8924 46.0614,50.059 44.5,51C 45.056,51.3826 45.3893,51.8826 45.5,52.5C 44.8333,52.5 44.1667,52.5 43.5,52.5C 39.5,49.8333 35.5,47.1667 31.5,44.5C 33.3664,45.0138 35.1997,45.6805 37,46.5C 39.7001,46.2105 41.0334,44.8771 41,42.5C 35.0718,40.2234 35.2385,38.2234 41.5,36.5C 44.0179,35.076 46.3512,33.4093 48.5,31.5C 46.79,30.1128 45.1233,28.7794 43.5,27.5C 45.6626,25.9172 47.9959,24.5839 50.5,23.5 Z"/></g>
<g><path style="opacity:1" fill="#a4ec7a" d="M 112.5,27.5 C 115.032,28.5957 117.365,29.9291 119.5,31.5C 114.5,34.1667 109.5,36.8333 104.5,39.5C 100.027,37.0952 95.694,34.4285 91.5,31.5C 93.583,30.0413 95.7497,28.7079 98,27.5C 100.333,28.8333 102.667,30.1667 105,31.5C 107.448,30.0268 109.948,28.6935 112.5,27.5 Z"/></g>
<g><path style="opacity:0.905" fill="#18600d" d="M 119.5,31.5 C 119.5,39.5 119.5,47.5 119.5,55.5C 116.833,56.8333 114.167,58.1667 111.5,59.5C 111.827,54.456 111.494,49.456 110.5,44.5C 108.742,45.1279 107.242,46.1279 106,47.5C 105.817,50.3647 105.317,53.0314 104.5,55.5C 104.808,53.076 104.474,50.7427 103.5,48.5C 102.167,49.1667 100.833,49.8333 99.5,50.5C 98.5258,48.2573 98.1924,45.924 98.5,43.5C 100.537,42.1535 102.537,40.8202 104.5,39.5C 109.5,36.8333 114.5,34.1667 119.5,31.5 Z"/></g>
<g><path style="opacity:0.903" fill="#54a135" d="M 22.5,40.5 C 22.5,42.8333 22.5,45.1667 22.5,47.5C 20.5266,46.5133 18.5266,45.5133 16.5,44.5C 15.8333,46.8333 15.1667,49.1667 14.5,51.5C 12.3021,49.9019 9.96874,48.5686 7.5,47.5C 7.5,44.8333 7.5,42.1667 7.5,39.5C 9.96874,40.5686 12.3021,41.9019 14.5,43.5C 15.1667,41.1667 15.8333,38.8333 16.5,36.5C 18.8132,37.5005 20.8132,38.8338 22.5,40.5 Z"/></g>
<g><path style="opacity:1" fill="#78cb55" d="M 22.5,40.5 C 25.5,41.8333 28.5,43.1667 31.5,44.5C 35.5,47.1667 39.5,49.8333 43.5,52.5C 42.8354,54.3691 42.1687,56.3691 41.5,58.5C 35.2709,54.8863 28.9376,51.553 22.5,48.5C 22.5,48.1667 22.5,47.8333 22.5,47.5C 22.5,45.1667 22.5,42.8333 22.5,40.5 Z"/></g>
<g><path style="opacity:0.899" fill="#66462d" d="M 22.5,47.5 C 22.5,47.8333 22.5,48.1667 22.5,48.5C 22.5,50.8333 22.5,53.1667 22.5,55.5C 20.5266,54.5133 18.5266,53.5133 16.5,52.5C 15.5258,54.7427 15.1924,57.076 15.5,59.5C 12.8068,58.1534 10.1401,56.8201 7.5,55.5C 7.5,52.8333 7.5,50.1667 7.5,47.5C 9.96874,48.5686 12.3021,49.9019 14.5,51.5C 15.1667,49.1667 15.8333,46.8333 16.5,44.5C 18.5266,45.5133 20.5266,46.5133 22.5,47.5 Z"/></g>
<g><path style="opacity:1" fill="#a0eb74" d="M 50.5,39.5 C 53.1019,41.8096 56.1019,43.6429 59.5,45C 61.0629,45.7589 62.0629,46.9256 62.5,48.5C 58.5591,50.1396 54.8924,52.3063 51.5,55C 51.8333,55.3333 52.1667,55.6667 52.5,56C 51.4232,56.4696 50.4232,56.3029 49.5,55.5C 47.7697,54.9744 46.4363,53.9744 45.5,52.5C 45.3893,51.8826 45.056,51.3826 44.5,51C 46.0614,50.059 47.3947,48.8924 48.5,47.5C 47.0552,45.9373 45.3885,44.604 43.5,43.5C 45.7254,41.89 48.0587,40.5566 50.5,39.5 Z"/></g>
<g><path style="opacity:1" fill="#a4ec79" d="M 91.5,47.5 C 86.2985,50.263 81.2985,53.263 76.5,56.5C 76.1667,56.5 75.8333,56.5 75.5,56.5C 72.8656,52.6575 69.1989,49.9909 64.5,48.5C 65.9475,45.736 68.2809,44.0693 71.5,43.5C 75.3432,47.4199 79.3432,47.4199 83.5,43.5C 76.7911,40.5537 76.9577,37.887 84,35.5C 86.2503,36.7079 88.417,38.0413 90.5,39.5C 88.5,40.8333 86.5,42.1667 84.5,43.5C 86.7654,45.1274 89.0987,46.4608 91.5,47.5 Z"/></g>
<g><path style="opacity:1" fill="#948882" d="M 22.5,55.5 C 22.5,55.8333 22.5,56.1667 22.5,56.5C 22.5,58.8333 22.5,61.1667 22.5,63.5C 20.0313,62.4314 17.6979,61.0981 15.5,59.5C 15.1924,57.076 15.5258,54.7427 16.5,52.5C 18.5266,53.5133 20.5266,54.5133 22.5,55.5 Z"/></g>
<g><path style="opacity:1" fill="#82d659" d="M 62.5,48.5 C 63.1667,48.5 63.8333,48.5 64.5,48.5C 69.1989,49.9909 72.8656,52.6575 75.5,56.5C 73.9991,57.7515 72.3325,58.7515 70.5,59.5C 68.2259,58.2628 65.8926,56.9295 63.5,55.5C 61.2695,56.9034 58.9361,58.0701 56.5,59C 57.056,59.3826 57.3893,59.8826 57.5,60.5C 56.8333,62.5 56.1667,64.5 55.5,66.5C 53.5168,65.5294 51.5168,64.5294 49.5,63.5C 49.5,60.8333 49.5,58.1667 49.5,55.5C 50.4232,56.3029 51.4232,56.4696 52.5,56C 52.1667,55.6667 51.8333,55.3333 51.5,55C 54.8924,52.3063 58.5591,50.1396 62.5,48.5 Z"/></g>
<g><path style="opacity:1" fill="#1d6f10" d="M 98.5,43.5 C 98.1924,45.924 98.5258,48.2573 99.5,50.5C 100.833,49.8333 102.167,49.1667 103.5,48.5C 104.474,50.7427 104.808,53.076 104.5,55.5C 103.035,56.7368 101.368,57.7368 99.5,58.5C 97.9642,56.9749 96.9642,54.9749 96.5,52.5C 92.4725,54.845 88.4725,57.1783 84.5,59.5C 82.5266,60.4867 80.5266,61.4867 78.5,62.5C 77.8313,60.3691 77.1646,58.3691 76.5,56.5C 81.2985,53.263 86.2985,50.263 91.5,47.5C 93.6705,45.9138 96.0038,44.5804 98.5,43.5 Z"/></g>
<g><path style="opacity:1" fill="#2a150b" d="M 111.5,59.5 C 107.167,62.1667 102.833,64.8333 98.5,67.5C 98.2641,64.3915 98.5975,61.3915 99.5,58.5C 101.368,57.7368 103.035,56.7368 104.5,55.5C 105.317,53.0314 105.817,50.3647 106,47.5C 107.242,46.1279 108.742,45.1279 110.5,44.5C 111.494,49.456 111.827,54.456 111.5,59.5 Z"/></g>
<g><path style="opacity:1" fill="#4f9c32" d="M 22.5,48.5 C 28.9376,51.553 35.2709,54.8863 41.5,58.5C 42.1687,56.3691 42.8354,54.3691 43.5,52.5C 44.1667,52.5 44.8333,52.5 45.5,52.5C 46.4363,53.9744 47.7697,54.9744 49.5,55.5C 49.5,58.1667 49.5,60.8333 49.5,63.5C 47.4449,62.0523 45.2782,60.719 43,59.5C 42.8142,61.9005 42.3142,64.2338 41.5,66.5C 40.1667,65.8333 38.8333,65.1667 37.5,64.5C 36.5258,66.7427 36.1924,69.076 36.5,71.5C 36.1667,71.5 35.8333,71.5 35.5,71.5C 35.5,71.1667 35.5,70.8333 35.5,70.5C 35.6633,68.1432 35.4966,65.8098 35,63.5C 31.0212,60.7624 26.8546,58.429 22.5,56.5C 22.5,56.1667 22.5,55.8333 22.5,55.5C 22.5,53.1667 22.5,50.8333 22.5,48.5 Z"/></g>
<g><path style="opacity:1" fill="#aced83" d="M 70.5,59.5 C 68.1667,60.8333 65.8333,62.1667 63.5,63.5C 61.4832,62.4706 59.4832,61.4706 57.5,60.5C 57.3893,59.8826 57.056,59.3826 56.5,59C 58.9361,58.0701 61.2695,56.9034 63.5,55.5C 65.8926,56.9295 68.2259,58.2628 70.5,59.5 Z"/></g>
<g><path style="opacity:1" fill="#144d09" d="M 99.5,58.5 C 98.5975,61.3915 98.2641,64.3915 98.5,67.5C 98.1667,67.5 97.8333,67.5 97.5,67.5C 97.8076,65.076 97.4742,62.7427 96.5,60.5C 91.8296,62.5237 90.4962,65.857 92.5,70.5C 92.5,71.1667 92.1667,71.5 91.5,71.5C 90.8347,69.3021 90.1681,66.9688 89.5,64.5C 87.6396,65.2599 85.973,66.2599 84.5,67.5C 84.5,64.8333 84.5,62.1667 84.5,59.5C 88.4725,57.1783 92.4725,54.845 96.5,52.5C 96.9642,54.9749 97.9642,56.9749 99.5,58.5 Z"/></g>
<g><path style="opacity:0.936" fill="#26130a" d="M 119.5,55.5 C 119.5,60.8333 119.5,66.1667 119.5,71.5C 114.807,73.8466 110.14,76.1799 105.5,78.5C 105.187,75.7531 105.52,73.0865 106.5,70.5C 111.099,68.3577 112.766,64.691 111.5,59.5C 114.167,58.1667 116.833,56.8333 119.5,55.5 Z"/></g>
<g><path style="opacity:1" fill="#65412b" d="M 22.5,56.5 C 26.8546,58.429 31.0212,60.7624 35,63.5C 35.4966,65.8098 35.6633,68.1432 35.5,70.5C 31.5266,68.5133 27.5266,66.5133 23.5,64.5C 23.5,63.8333 23.1667,63.5 22.5,63.5C 22.5,61.1667 22.5,58.8333 22.5,56.5 Z"/></g>
<g><path style="opacity:1" fill="#16600d" d="M 75.5,56.5 C 75.8333,56.5 76.1667,56.5 76.5,56.5C 77.1646,58.3691 77.8313,60.3691 78.5,62.5C 80.5266,61.4867 82.5266,60.4867 84.5,59.5C 84.5,62.1667 84.5,64.8333 84.5,67.5C 82.0038,68.5804 79.6705,69.9138 77.5,71.5C 77.6641,68.8127 77.4974,66.146 77,63.5C 75,64.8333 73,66.1667 71,67.5C 70.5026,70.146 70.3359,72.8127 70.5,75.5C 68.1667,76.8333 65.8333,78.1667 63.5,79.5C 63.5,74.1667 63.5,68.8333 63.5,63.5C 65.8333,62.1667 68.1667,60.8333 70.5,59.5C 72.3325,58.7515 73.9991,57.7515 75.5,56.5 Z"/></g>
<g><path style="opacity:1" fill="#1a6b0d" d="M 97.5,67.5 C 96.0351,68.7368 94.3684,69.7368 92.5,70.5C 90.4962,65.857 91.8296,62.5237 96.5,60.5C 97.4742,62.7427 97.8076,65.076 97.5,67.5 Z"/></g>
<g><path style="opacity:0.896" fill="#84583b" d="M 7.5,55.5 C 10.1401,56.8201 12.8068,58.1534 15.5,59.5C 17.6979,61.0981 20.0313,62.4314 22.5,63.5C 23.1667,63.5 23.5,63.8333 23.5,64.5C 22.5318,66.6074 22.1984,68.9407 22.5,71.5C 20.5266,70.5133 18.5266,69.5133 16.5,68.5C 15.5258,70.7427 15.1924,73.076 15.5,75.5C 12.8068,74.1534 10.1401,72.8201 7.5,71.5C 7.5,66.1667 7.5,60.8333 7.5,55.5 Z"/></g>
<g><path style="opacity:1" fill="#6ac047" d="M 49.5,63.5 C 49.6641,66.1873 49.4974,68.854 49,71.5C 47.172,69.9186 45.172,68.5853 43,67.5C 43.528,74.7144 41.3613,76.0477 36.5,71.5C 36.1924,69.076 36.5258,66.7427 37.5,64.5C 38.8333,65.1667 40.1667,65.8333 41.5,66.5C 42.3142,64.2338 42.8142,61.9005 43,59.5C 45.2782,60.719 47.4449,62.0523 49.5,63.5 Z"/></g>
<g><path style="opacity:1" fill="#25150a" d="M 77.5,71.5 C 75.0038,72.5804 72.6705,73.9138 70.5,75.5C 70.3359,72.8127 70.5026,70.146 71,67.5C 73,66.1667 75,64.8333 77,63.5C 77.4974,66.146 77.6641,68.8127 77.5,71.5 Z"/></g>
<g><path style="opacity:1" fill="#66412c" d="M 22.5,71.5 C 27.3913,73.7612 29.7246,77.7612 29.5,83.5C 31.2433,85.0383 33.2433,86.0383 35.5,86.5C 35.5,86.8333 35.5,87.1667 35.5,87.5C 35.5,89.8333 35.5,92.1667 35.5,94.5C 33.2433,94.0383 31.2433,93.0383 29.5,91.5C 28.5258,93.7427 28.1924,96.076 28.5,98.5C 26.7162,98.1075 25.0495,97.4408 23.5,96.5C 22.712,90.9145 22.212,85.2479 22,79.5C 19.7218,78.281 17.5551,76.9477 15.5,75.5C 15.1924,73.076 15.5258,70.7427 16.5,68.5C 18.5266,69.5133 20.5266,70.5133 22.5,71.5 Z"/></g>
<g><path style="opacity:1" fill="#5fb23e" d="M 57.5,60.5 C 59.4832,61.4706 61.4832,62.4706 63.5,63.5C 63.5,68.8333 63.5,74.1667 63.5,79.5C 63.5,82.1667 63.5,84.8333 63.5,87.5C 61.1667,86.1667 58.8333,84.8333 56.5,83.5C 56.7857,77.7414 56.4524,72.0748 55.5,66.5C 56.1667,64.5 56.8333,62.5 57.5,60.5 Z"/></g>
<g><path style="opacity:0.895" fill="#a97752" d="M 7.5,71.5 C 10.1401,72.8201 12.8068,74.1534 15.5,75.5C 15.8134,78.2469 15.48,80.9135 14.5,83.5C 12.2746,81.89 9.9413,80.5566 7.5,79.5C 7.5,76.8333 7.5,74.1667 7.5,71.5 Z"/></g>
<g><path style="opacity:1" fill="#30190d" d="M 91.5,71.5 C 91.5,76.5 91.5,81.5 91.5,86.5C 91.5,86.8333 91.5,87.1667 91.5,87.5C 89.5336,88.4412 87.5336,89.4412 85.5,90.5C 84.5258,88.2573 84.1924,85.924 84.5,83.5C 89.8946,81.6383 91.5613,77.9716 89.5,72.5C 85.4725,74.845 81.4725,77.1783 77.5,79.5C 77.5,76.8333 77.5,74.1667 77.5,71.5C 79.6705,69.9138 82.0038,68.5804 84.5,67.5C 85.973,66.2599 87.6396,65.2599 89.5,64.5C 90.1681,66.9688 90.8347,69.3021 91.5,71.5 Z"/></g>
<g><path style="opacity:1" fill="#2e2f30" d="M 77.5,71.5 C 77.5,74.1667 77.5,76.8333 77.5,79.5C 75.1105,80.446 72.9438,81.7794 71,83.5C 70.5026,80.854 70.3359,78.1873 70.5,75.5C 72.6705,73.9138 75.0038,72.5804 77.5,71.5 Z"/></g>
<g><path style="opacity:0.962" fill="#371d0f" d="M 119.5,71.5 C 119.831,79.8599 119.498,88.1932 118.5,96.5C 116.473,97.5133 114.473,98.5133 112.5,99.5C 111.683,97.0314 111.183,94.3647 111,91.5C 106.797,94.5176 102.297,96.8509 97.5,98.5C 97.5,96.5 97.5,94.5 97.5,92.5C 97.8333,91.8333 98.1667,91.1667 98.5,90.5C 103.932,89.3875 105.932,86.0542 104.5,80.5C 102.516,80.3832 100.85,81.0499 99.5,82.5C 97.5218,77.6927 98.8551,74.3593 103.5,72.5C 104.169,74.6309 104.835,76.6309 105.5,78.5C 110.14,76.1799 114.807,73.8466 119.5,71.5 Z"/></g>
<g><path style="opacity:1" fill="#996948" d="M 23.5,64.5 C 27.5266,66.5133 31.5266,68.5133 35.5,70.5C 35.5,70.8333 35.5,71.1667 35.5,71.5C 35.5,76.5 35.5,81.5 35.5,86.5C 33.2433,86.0383 31.2433,85.0383 29.5,83.5C 29.7246,77.7612 27.3913,73.7612 22.5,71.5C 22.1984,68.9407 22.5318,66.6074 23.5,64.5 Z"/></g>
<g><path style="opacity:1" fill="#744e33" d="M 49.5,63.5 C 51.5168,64.5294 53.5168,65.5294 55.5,66.5C 56.4524,72.0748 56.7857,77.7414 56.5,83.5C 54.4449,82.0523 52.2782,80.719 50,79.5C 50.5511,86.5907 48.3844,87.924 43.5,83.5C 42.5258,85.7427 42.1924,88.076 42.5,90.5C 40.0202,89.758 37.6869,88.758 35.5,87.5C 35.5,87.1667 35.5,86.8333 35.5,86.5C 35.5,81.5 35.5,76.5 35.5,71.5C 35.8333,71.5 36.1667,71.5 36.5,71.5C 41.3613,76.0477 43.528,74.7144 43,67.5C 45.172,68.5853 47.172,69.9186 49,71.5C 49.4974,68.854 49.6641,66.1873 49.5,63.5 Z"/></g>
<g><path style="opacity:1" fill="#2e180c" d="M 111.5,59.5 C 112.766,64.691 111.099,68.3577 106.5,70.5C 105.52,73.0865 105.187,75.7531 105.5,78.5C 104.835,76.6309 104.169,74.6309 103.5,72.5C 98.8551,74.3593 97.5218,77.6927 99.5,82.5C 100.85,81.0499 102.516,80.3832 104.5,80.5C 105.932,86.0542 103.932,89.3875 98.5,90.5C 98.8076,88.076 98.4742,85.7427 97.5,83.5C 95.7567,85.0383 93.7567,86.0383 91.5,86.5C 91.5,81.5 91.5,76.5 91.5,71.5C 92.1667,71.5 92.5,71.1667 92.5,70.5C 94.3684,69.7368 96.0351,68.7368 97.5,67.5C 97.8333,67.5 98.1667,67.5 98.5,67.5C 102.833,64.8333 107.167,62.1667 111.5,59.5 Z"/></g>
<g><path style="opacity:1" fill="#321a0d" d="M 84.5,83.5 C 79.5273,86.3214 74.5273,89.1547 69.5,92C 70.435,94.3806 70.7683,96.8806 70.5,99.5C 68.0038,100.58 65.6705,101.914 63.5,103.5C 63.5,98.1667 63.5,92.8333 63.5,87.5C 63.5,84.8333 63.5,82.1667 63.5,79.5C 65.8333,78.1667 68.1667,76.8333 70.5,75.5C 70.3359,78.1873 70.5026,80.854 71,83.5C 72.9438,81.7794 75.1105,80.446 77.5,79.5C 81.4725,77.1783 85.4725,74.845 89.5,72.5C 91.5613,77.9716 89.8946,81.6383 84.5,83.5 Z"/></g>
<g><path style="opacity:1" fill="#26130a" d="M 84.5,83.5 C 84.1924,85.924 84.5258,88.2573 85.5,90.5C 87.5336,89.4412 89.5336,88.4412 91.5,87.5C 91.1984,90.0593 91.5318,92.3926 92.5,94.5C 89.8444,96.2528 87.0111,97.9195 84,99.5C 83.5026,102.146 83.3359,104.813 83.5,107.5C 81.7837,109.025 79.7837,110.025 77.5,110.5C 77.6659,105.489 77.4993,100.489 77,95.5C 74.7218,96.719 72.5551,98.0523 70.5,99.5C 70.7683,96.8806 70.435,94.3806 69.5,92C 74.5273,89.1547 79.5273,86.3214 84.5,83.5 Z"/></g>
<g><path style="opacity:1" fill="#a3714d" d="M 56.5,83.5 C 56.8076,85.924 56.4742,88.2573 55.5,90.5C 54.1401,89.8201 52.8068,89.1534 51.5,88.5C 51.44,87.9569 51.1067,87.6236 50.5,87.5C 49.8333,89.8333 49.1667,92.1667 48.5,94.5C 46.4664,93.4412 44.4664,92.4412 42.5,91.5C 42.5,91.1667 42.5,90.8333 42.5,90.5C 42.1924,88.076 42.5258,85.7427 43.5,83.5C 48.3844,87.924 50.5511,86.5907 50,79.5C 52.2782,80.719 54.4449,82.0523 56.5,83.5 Z"/></g>
<g><path style="opacity:1" fill="#66412c" d="M 56.5,83.5 C 58.8333,84.8333 61.1667,86.1667 63.5,87.5C 63.5,92.8333 63.5,98.1667 63.5,103.5C 59.5275,101.178 55.5275,98.845 51.5,96.5C 50.1997,93.6908 50.1997,91.0241 51.5,88.5C 52.8068,89.1534 54.1401,89.8201 55.5,90.5C 56.4742,88.2573 56.8076,85.924 56.5,83.5 Z"/></g>
<g><path style="opacity:1" fill="#2f2e2e" d="M 98.5,90.5 C 98.1667,91.1667 97.8333,91.8333 97.5,92.5C 95.7162,92.8925 94.0495,93.5592 92.5,94.5C 91.5318,92.3926 91.1984,90.0593 91.5,87.5C 91.5,87.1667 91.5,86.8333 91.5,86.5C 93.7567,86.0383 95.7567,85.0383 97.5,83.5C 98.4742,85.7427 98.8076,88.076 98.5,90.5 Z"/></g>
<g><path style="opacity:0.816" fill="#66412c" d="M 7.5,87.5 C 15.0455,88.6745 17.3789,92.6745 14.5,99.5C 8.43523,97.8875 6.1019,93.8875 7.5,87.5 Z"/></g>
<g><path style="opacity:1" fill="#958883" d="M 35.5,87.5 C 37.6869,88.758 40.0202,89.758 42.5,90.5C 42.5,90.8333 42.5,91.1667 42.5,91.5C 42.8016,94.0593 42.4682,96.3926 41.5,98.5C 39.1184,97.6493 37.1184,96.316 35.5,94.5C 35.5,92.1667 35.5,89.8333 35.5,87.5 Z"/></g>
<g><path style="opacity:0.9" fill="#85593d" d="M 15.5,75.5 C 17.5551,76.9477 19.7218,78.281 22,79.5C 22.212,85.2479 22.712,90.9145 23.5,96.5C 22.8333,98.8333 22.1667,101.167 21.5,103.5C 18.9684,102.404 16.6351,101.071 14.5,99.5C 17.3789,92.6745 15.0455,88.6745 7.5,87.5C 7.5,84.8333 7.5,82.1667 7.5,79.5C 9.9413,80.5566 12.2746,81.89 14.5,83.5C 15.48,80.9135 15.8134,78.2469 15.5,75.5 Z"/></g>
<g><path style="opacity:0.955" fill="#331a0e" d="M 112.5,99.5 C 103.429,105.225 94.0957,110.559 84.5,115.5C 84.8064,112.615 84.4731,109.948 83.5,107.5C 83.3359,104.813 83.5026,102.146 84,99.5C 87.0111,97.9195 89.8444,96.2528 92.5,94.5C 94.0495,93.5592 95.7162,92.8925 97.5,92.5C 97.5,94.5 97.5,96.5 97.5,98.5C 102.297,96.8509 106.797,94.5176 111,91.5C 111.183,94.3647 111.683,97.0314 112.5,99.5 Z"/></g>
<g><path style="opacity:0.903" fill="#988e8a" d="M 23.5,96.5 C 25.0495,97.4408 26.7162,98.1075 28.5,98.5C 28.5,98.8333 28.5,99.1667 28.5,99.5C 28.5,102.167 28.5,104.833 28.5,107.5C 25.9684,106.404 23.6351,105.071 21.5,103.5C 22.1667,101.167 22.8333,98.8333 23.5,96.5 Z"/></g>
<g><path style="opacity:1" fill="#9d6c4a" d="M 35.5,94.5 C 37.1184,96.316 39.1184,97.6493 41.5,98.5C 44.0205,100.019 46.5205,101.686 49,103.5C 49.9574,106.379 49.4574,108.879 47.5,111C 49.3213,113.456 49.988,116.289 49.5,119.5C 46.9959,118.416 44.6626,117.083 42.5,115.5C 42.2317,112.881 42.565,110.381 43.5,108C 38.4454,105.143 33.4454,102.309 28.5,99.5C 28.5,99.1667 28.5,98.8333 28.5,98.5C 28.1924,96.076 28.5258,93.7427 29.5,91.5C 31.2433,93.0383 33.2433,94.0383 35.5,94.5 Z"/></g>
<g><path style="opacity:0.901" fill="#81563b" d="M 28.5,99.5 C 33.4454,102.309 38.4454,105.143 43.5,108C 42.565,110.381 42.2317,112.881 42.5,115.5C 37.4997,113.336 32.833,110.669 28.5,107.5C 28.5,104.833 28.5,102.167 28.5,99.5 Z"/></g>
<g><path style="opacity:1" fill="#321a0d" d="M 77.5,110.5 C 77.5,113.5 77.5,116.5 77.5,119.5C 73.5,122.167 69.5,124.833 65.5,127.5C 64.8333,127.5 64.1667,127.5 63.5,127.5C 63.5,124.833 63.5,122.167 63.5,119.5C 63.5,114.167 63.5,108.833 63.5,103.5C 65.6705,101.914 68.0038,100.58 70.5,99.5C 72.5551,98.0523 74.7218,96.719 77,95.5C 77.4993,100.489 77.6659,105.489 77.5,110.5 Z"/></g>
<g><path style="opacity:1" fill="#82573b" d="M 51.5,88.5 C 50.1997,91.0241 50.1997,93.6908 51.5,96.5C 55.5275,98.845 59.5275,101.178 63.5,103.5C 63.5,108.833 63.5,114.167 63.5,119.5C 61.4449,118.052 59.2782,116.719 57,115.5C 56.5026,118.146 56.3359,120.813 56.5,123.5C 53.9959,122.416 51.6626,121.083 49.5,119.5C 49.988,116.289 49.3213,113.456 47.5,111C 49.4574,108.879 49.9574,106.379 49,103.5C 46.5205,101.686 44.0205,100.019 41.5,98.5C 42.4682,96.3926 42.8016,94.0593 42.5,91.5C 44.4664,92.4412 46.4664,93.4412 48.5,94.5C 49.1667,92.1667 49.8333,89.8333 50.5,87.5C 51.1067,87.6236 51.44,87.9569 51.5,88.5 Z"/></g>
<g><path style="opacity:0.901" fill="#2e2f30" d="M 83.5,107.5 C 84.4731,109.948 84.8064,112.615 84.5,115.5C 82.3374,117.083 80.0041,118.416 77.5,119.5C 77.5,116.5 77.5,113.5 77.5,110.5C 79.7837,110.025 81.7837,109.025 83.5,107.5 Z"/></g>
<g><path style="opacity:0.894" fill="#ac7953" d="M 63.5,119.5 C 63.5,122.167 63.5,124.833 63.5,127.5C 62.8333,127.5 62.1667,127.5 61.5,127.5C 59.8333,126.167 58.1667,124.833 56.5,123.5C 56.3359,120.813 56.5026,118.146 57,115.5C 59.2782,116.719 61.4449,118.052 63.5,119.5 Z"/></g>
</svg>
